<?xml version="1.0" standalone="no"?>
<!DOCTYPE svg PUBLIC "-//W3C//DTD SVG 20010904//EN"
 "http://www.w3.org/TR/2001/REC-SVG-20010904/DTD/svg10.dtd">
<svg version="1.0" xmlns="http://www.w3.org/2000/svg"
 width="1000.000000pt" height="1000.000000pt" viewBox="0 0 1000.000000 1000.000000"
 preserveAspectRatio="xMidYMid meet">
<metadata>
Created by potrace 1.14, written by Peter Selinger 2001-2017
</metadata>
<g transform="translate(0.000000,1000.000000) scale(0.100000,-0.100000)"
fill="#000000" stroke="none">
<path d="M3479 9985 c-2 -2 -89 -6 -194 -10 -322 -12 -347 -13 -455 -20 -58
-3 -118 -8 -135 -11 -16 -2 -55 -6 -85 -9 -30 -2 -71 -6 -90 -9 -19 -3 -53 -8
-75 -11 -22 -3 -67 -10 -100 -16 -33 -7 -69 -13 -80 -14 -11 -2 -60 -13 -110
-25 -49 -12 -97 -23 -105 -25 -48 -11 -338 -109 -368 -124 -9 -5 -60 -28 -112
-51 -441 -193 -871 -587 -1132 -1036 -188 -324 -327 -783 -373 -1229 -3 -27
-7 -68 -10 -90 -4 -36 -7 -88 -20 -320 -16 -292 -20 -654 -20 -1975 0 -1309 4
-1707 20 -2000 12 -222 17 -295 20 -310 2 -9 6 -48 9 -86 3 -38 8 -78 10 -89
2 -11 7 -45 11 -75 32 -252 123 -580 230 -825 139 -319 307 -559 566 -810 229
-222 467 -381 754 -506 88 -39 350 -129 420 -144 6 -2 39 -10 75 -19 36 -9 76
-19 90 -22 43 -9 124 -23 155 -28 51 -8 119 -18 135 -21 8 -2 49 -6 90 -10 41
-4 88 -9 105 -10 16 -2 77 -7 135 -10 58 -3 137 -8 175 -10 281 -16 663 -20
1995 -20 1496 0 1743 3 2160 30 86 6 194 15 230 20 14 2 52 7 85 10 33 4 67 8
75 10 8 2 35 7 60 10 309 42 796 211 1032 358 185 116 314 215 452 347 222
213 369 406 501 656 127 240 254 619 290 869 4 22 8 47 10 55 2 8 7 38 10 65
4 28 8 61 10 75 2 14 7 52 10 85 3 33 8 74 10 90 6 46 16 241 32 600 11 251
10 3167 0 3405 -5 102 -10 223 -12 270 -4 129 -15 312 -20 340 -2 14 -7 54
-10 90 -4 36 -8 76 -10 90 -2 14 -11 72 -20 130 -9 58 -20 121 -25 140 -5 19
-11 46 -13 60 -3 14 -10 45 -17 70 -7 25 -14 53 -16 63 -7 37 -73 235 -109
327 -141 358 -326 634 -607 906 -303 293 -608 471 -1048 614 -52 16 -104 32
-115 34 -11 3 -58 14 -105 25 -47 11 -103 23 -125 26 -22 4 -47 8 -55 10 -8 3
-33 7 -55 10 -22 3 -51 8 -65 10 -51 10 -153 22 -250 30 -36 3 -92 7 -125 10
-33 3 -125 7 -205 10 -80 3 -188 8 -240 12 -99 6 -3245 15 -3251 8z m3201
-908 c63 -4 169 -9 235 -12 293 -13 423 -26 610 -60 17 -3 45 -8 63 -11 51 -8
258 -69 334 -97 279 -105 502 -264 702 -501 102 -121 164 -225 254 -426 34
-77 100 -296 116 -385 29 -158 33 -182 41 -255 3 -30 8 -71 10 -90 6 -46 16
-212 20 -314 2 -44 7 -173 12 -286 4 -113 8 -848 8 -1635 0 -1259 -4 -1649
-20 -1920 -11 -202 -17 -293 -20 -320 -2 -16 -6 -57 -9 -91 -4 -33 -8 -69 -10
-80 -2 -10 -7 -39 -11 -64 -4 -25 -9 -54 -11 -65 -2 -11 -7 -33 -9 -50 -22
-121 -98 -347 -165 -490 -147 -311 -430 -598 -740 -748 -134 -65 -339 -137
-465 -163 -270 -56 -425 -70 -990 -91 -267 -10 -3013 -10 -3280 0 -581 22
-653 29 -991 93 -98 18 -342 105 -464 164 -235 115 -480 337 -636 575 -45 70
-69 116 -141 274 -30 67 -91 260 -109 346 -12 58 -44 247 -50 295 -15 127 -28
352 -41 695 -10 265 -10 3018 0 3260 15 387 28 604 42 710 78 597 270 982 645
1294 193 161 492 301 765 357 267 55 447 72 985 89 113 4 206 8 208 10 6 6
2990 -2 3112 -8z"/>
<path d="M7594 8259 c-180 -22 -344 -127 -440 -282 -208 -337 -34 -782 349
-891 62 -18 195 -25 264 -14 148 24 306 126 391 251 123 182 139 416 41 610
-35 68 -36 70 -106 146 -88 95 -231 168 -351 177 -37 3 -71 7 -77 8 -5 1 -38
-1 -71 -5z"/>
<path d="M4876 7563 c-1 -1 -37 -5 -80 -8 -85 -6 -109 -9 -241 -31 -338 -56
-706 -205 -992 -400 -211 -144 -439 -356 -573 -532 -14 -18 -33 -43 -43 -55
-27 -32 -141 -205 -172 -262 -15 -27 -40 -72 -54 -100 -31 -58 -120 -257 -126
-282 -3 -10 -16 -52 -31 -93 -14 -41 -27 -82 -29 -90 -21 -80 -46 -186 -50
-208 -3 -15 -7 -38 -10 -51 -2 -13 -7 -49 -11 -80 -3 -31 -8 -59 -10 -62 -6
-10 -17 -211 -17 -309 0 -85 5 -168 19 -325 3 -40 34 -203 59 -309 29 -125
107 -338 181 -491 190 -395 515 -765 894 -1016 409 -272 904 -421 1395 -422
167 0 291 11 455 38 145 25 395 90 435 114 6 3 15 6 20 7 6 1 60 23 120 50
241 105 442 229 647 401 76 63 289 284 349 363 84 109 176 246 224 335 21 39
41 75 45 80 11 15 121 266 125 285 2 8 12 38 23 65 39 99 90 321 116 505 24
169 24 469 0 640 -21 150 -31 198 -60 315 -74 297 -245 660 -411 875 -137 178
-235 285 -364 399 -105 93 -125 110 -169 141 -19 13 -37 27 -40 30 -13 14
-155 104 -240 152 -181 102 -334 167 -525 224 -42 13 -206 55 -230 59 -122 21
-234 36 -315 41 -94 6 -310 11 -314 7z m259 -907 c104 -8 130 -12 252 -41 523
-124 958 -501 1158 -1004 39 -99 89 -282 99 -366 4 -27 9 -66 11 -85 7 -49 7
-265 0 -320 -36 -290 -109 -498 -255 -735 -13 -22 -28 -44 -32 -50 -71 -94
-136 -171 -181 -216 -181 -184 -401 -324 -637 -407 -293 -102 -583 -120 -898
-56 -190 38 -405 129 -572 242 -397 268 -643 655 -724 1137 -16 98 -22 321
-11 400 3 17 7 53 10 80 3 28 15 91 27 140 130 561 546 1018 1089 1199 57 19
118 38 134 41 127 26 193 35 280 41 55 4 101 8 103 9 1 1 17 1 35 -1 17 -1 68
-5 112 -8z"/>
</g>
</svg>
